o Icosphere.002
v -2.146386 -1.692053 -5.161756
v -1.422779 -1.139272 -4.636031
v -2.422774 -1.139273 -4.311107
v -3.040812 -1.139268 -5.161756
v -2.422774 -1.139273 -6.012405
v -1.422779 -1.139272 -5.687481
v -1.869998 -0.244833 -4.311107
v -2.869993 -0.244833 -4.636031
v -2.869993 -0.244833 -5.687481
v -1.869998 -0.244833 -6.012405
v -1.251960 -0.244837 -5.161756
v -2.146386 0.307947 -5.161756
v -2.308842 -1.542707 -4.661761
v -1.721063 -1.542707 -4.852745
v -1.883517 -1.217790 -4.352745
v -1.295738 -1.217789 -5.161756
v -1.721063 -1.542707 -5.470767
v -2.672116 -1.542705 -5.161756
v -2.834576 -1.217789 -4.661759
v -2.308842 -1.542707 -5.661751
v -2.834576 -1.217789 -5.661753
v -1.883517 -1.217790 -5.970767
v -1.195328 -0.692053 -4.852744
v -1.195328 -0.692053 -5.470768
v -2.146386 -0.692053 -4.161756
v -1.558601 -0.692053 -4.352739
v -3.097444 -0.692053 -4.852744
v -2.734172 -0.692053 -4.352739
v -2.734172 -0.692053 -5.970773
v -3.097444 -0.692053 -5.470768
v -1.558601 -0.692053 -5.970773
v -2.146386 -0.692053 -6.161756
v -1.458197 -0.166317 -4.661759
v -2.409255 -0.166315 -4.352745
v -2.997034 -0.166317 -5.161756
v -2.409255 -0.166315 -5.970767
v -1.458197 -0.166317 -5.661753
v -1.983931 0.158602 -4.661761
v -1.620656 0.158599 -5.161756
v -2.571709 0.158601 -4.852745
v -2.571709 0.158601 -5.470767
v -1.983931 0.158602 -5.661751
vn 0.1024 -0.9435 0.3151
vn 0.7002 -0.6617 0.2680
vn -0.2680 -0.9435 0.1947
vn -0.2680 -0.9435 -0.1947
vn 0.1024 -0.9435 -0.3151
vn 0.9050 -0.3304 0.2680
vn 0.0247 -0.3304 0.9435
vn -0.8897 -0.3304 0.3151
vn -0.5746 -0.3304 -0.7488
vn 0.5346 -0.3304 -0.7779
vn 0.8026 -0.1256 0.5831
vn -0.3066 -0.1256 0.9435
vn -0.9921 -0.1256 0.0000
vn -0.3066 -0.1256 -0.9435
vn 0.8026 -0.1256 -0.5831
vn 0.4089 0.6617 0.6284
vn -0.4713 0.6617 0.5831
vn -0.7002 0.6617 -0.2680
vn 0.0385 0.6617 -0.7488
vn 0.7240 0.6617 -0.1947
vn 0.2680 0.9435 -0.1947
vn 0.4911 0.7947 -0.3568
vn 0.4089 0.6617 -0.6284
vn -0.1024 0.9435 -0.3151
vn -0.1876 0.7947 -0.5773
vn -0.4713 0.6617 -0.5831
vn -0.3313 0.9435 0.0000
vn -0.6071 0.7947 0.0000
vn -0.7002 0.6617 0.2680
vn -0.1024 0.9435 0.3151
vn -0.1876 0.7947 0.5773
vn 0.0385 0.6617 0.7488
vn 0.2680 0.9435 0.1947
vn 0.4911 0.7947 0.3568
vn 0.7240 0.6617 0.1947
vn 0.8897 0.3304 -0.3151
vn 0.7947 0.1876 -0.5773
vn 0.5746 0.3304 -0.7488
vn -0.0247 0.3304 -0.9435
vn -0.3035 0.1876 -0.9342
vn -0.5346 0.3304 -0.7779
vn -0.9050 0.3304 -0.2680
vn -0.9822 0.1876 0.0000
vn -0.9050 0.3304 0.2680
vn -0.5346 0.3304 0.7779
vn -0.3035 0.1876 0.9342
vn -0.0247 0.3304 0.9435
vn 0.5746 0.3304 0.7488
vn 0.7947 0.1876 0.5773
vn 0.8897 0.3304 0.3151
vn 0.3066 0.1256 -0.9435
vn 0.3035 -0.1876 -0.9342
vn 0.0247 -0.3304 -0.9435
vn -0.8026 0.1256 -0.5831
vn -0.7947 -0.1876 -0.5773
vn -0.8897 -0.3304 -0.3151
vn -0.8026 0.1256 0.5831
vn -0.7947 -0.1876 0.5773
vn -0.5746 -0.3304 0.7488
vn 0.3066 0.1256 0.9435
vn 0.3035 -0.1876 0.9342
vn 0.5346 -0.3304 0.7779
vn 0.9921 0.1256 0.0000
vn 0.9822 -0.1876 0.0000
vn 0.9050 -0.3304 -0.2680
vn 0.4713 -0.6617 -0.5831
vn 0.1876 -0.7947 -0.5773
vn -0.0385 -0.6617 -0.7488
vn -0.4089 -0.6617 -0.6284
vn -0.4911 -0.7947 -0.3568
vn -0.7240 -0.6617 -0.1947
vn -0.7240 -0.6617 0.1947
vn -0.4911 -0.7947 0.3568
vn -0.4089 -0.6617 0.6284
vn 0.7002 -0.6617 -0.2680
vn 0.6071 -0.7947 0.0000
vn 0.3313 -0.9435 0.0000
vn -0.0385 -0.6617 0.7488
vn 0.1876 -0.7947 0.5773
vn 0.4713 -0.6617 0.5831
usemtl None
s off
f 1//1 14//1 13//1
f 2//2 14//2 16//2
f 1//3 13//3 18//3
f 1//4 18//4 20//4
f 1//5 20//5 17//5
f 2//6 16//6 23//6
f 3//7 15//7 25//7
f 4//8 19//8 27//8
f 5//9 21//9 29//9
f 6//10 22//10 31//10
f 2//11 23//11 26//11
f 3//12 25//12 28//12
f 4//13 27//13 30//13
f 5//14 29//14 32//14
f 6//15 31//15 24//15
f 7//16 33//16 38//16
f 8//17 34//17 40//17
f 9//18 35//18 41//18
f 10//19 36//19 42//19
f 11//20 37//20 39//20
f 39//21 42//21 12//21
f 39//22 37//22 42//22
f 37//23 10//23 42//23
f 42//24 41//24 12//24
f 42//25 36//25 41//25
f 36//26 9//26 41//26
f 41//27 40//27 12//27
f 41//28 35//28 40//28
f 35//29 8//29 40//29
f 40//30 38//30 12//30
f 40//31 34//31 38//31
f 34//32 7//32 38//32
f 38//33 39//33 12//33
f 38//34 33//34 39//34
f 33//35 11//35 39//35
f 24//36 37//36 11//36
f 24//37 31//37 37//37
f 31//38 10//38 37//38
f 32//39 36//39 10//39
f 32//40 29//40 36//40
f 29//41 9//41 36//41
f 30//42 35//42 9//42
f 30//43 27//43 35//43
f 27//44 8//44 35//44
f 28//45 34//45 8//45
f 28//46 25//46 34//46
f 25//47 7//47 34//47
f 26//48 33//48 7//48
f 26//49 23//49 33//49
f 23//50 11//50 33//50
f 31//51 32//51 10//51
f 31//52 22//52 32//52
f 22//53 5//53 32//53
f 29//54 30//54 9//54
f 29//55 21//55 30//55
f 21//56 4//56 30//56
f 27//57 28//57 8//57
f 27//58 19//58 28//58
f 19//59 3//59 28//59
f 25//60 26//60 7//60
f 25//61 15//61 26//61
f 15//62 2//62 26//62
f 23//63 24//63 11//63
f 23//64 16//64 24//64
f 16//65 6//65 24//65
f 17//66 22//66 6//66
f 17//67 20//67 22//67
f 20//68 5//68 22//68
f 20//69 21//69 5//69
f 20//70 18//70 21//70
f 18//71 4//71 21//71
f 18//72 19//72 4//72
f 18//73 13//73 19//73
f 13//74 3//74 19//74
f 16//75 17//75 6//75
f 16//76 14//76 17//76
f 14//77 1//77 17//77
f 13//78 15//78 3//78
f 13//79 14//79 15//79
f 14//80 2//80 15//80
o Icosphere.001
v -2.146386 -1.692053 -0.578618
v -1.422779 -1.139272 -0.052892
v -2.422774 -1.139273 0.272032
v -3.040812 -1.139268 -0.578618
v -2.422774 -1.139273 -1.429267
v -1.422779 -1.139272 -1.104343
v -1.869998 -0.244833 0.272032
v -2.869993 -0.244833 -0.052892
v -2.869993 -0.244833 -1.104343
v -1.869998 -0.244833 -1.429267
v -1.251960 -0.244837 -0.578618
v -2.146386 0.307947 -0.578618
v -2.308842 -1.542707 -0.078622
v -1.721063 -1.542707 -0.269606
v -1.883517 -1.217790 0.230394
v -1.295738 -1.217789 -0.578618
v -1.721063 -1.542707 -0.887629
v -2.672116 -1.542705 -0.578618
v -2.834576 -1.217789 -0.078621
v -2.308842 -1.542707 -1.078613
v -2.834576 -1.217789 -1.078614
v -1.883517 -1.217790 -1.387629
v -1.195328 -0.692053 -0.269605
v -1.195328 -0.692053 -0.887630
v -2.146386 -0.692053 0.421382
v -1.558601 -0.692053 0.230399
v -3.097444 -0.692053 -0.269605
v -2.734172 -0.692053 0.230399
v -2.734172 -0.692053 -1.387634
v -3.097444 -0.692053 -0.887630
v -1.558601 -0.692053 -1.387634
v -2.146386 -0.692053 -1.578618
v -1.458197 -0.166317 -0.078621
v -2.409255 -0.166315 0.230394
v -2.997034 -0.166317 -0.578618
v -2.409255 -0.166315 -1.387629
v -1.458197 -0.166317 -1.078614
v -1.983931 0.158602 -0.078622
v -1.620656 0.158599 -0.578618
v -2.571709 0.158601 -0.269606
v -2.571709 0.158601 -0.887629
v -1.983931 0.158602 -1.078613
vn 0.1024 -0.9435 0.3151
vn 0.7002 -0.6617 0.2680
vn -0.2680 -0.9435 0.1947
vn -0.2680 -0.9435 -0.1947
vn 0.1024 -0.9435 -0.3151
vn 0.9050 -0.3304 0.2680
vn 0.0247 -0.3304 0.9435
vn -0.8897 -0.3304 0.3151
vn -0.5746 -0.3304 -0.7488
vn 0.5346 -0.3304 -0.7779
vn 0.8026 -0.1256 0.5831
vn -0.3066 -0.1256 0.9435
vn -0.9921 -0.1256 0.0000
vn -0.3066 -0.1256 -0.9435
vn 0.8026 -0.1256 -0.5831
vn 0.4089 0.6617 0.6284
vn -0.4713 0.6617 0.5831
vn -0.7002 0.6617 -0.2680
vn 0.0385 0.6617 -0.7488
vn 0.7240 0.6617 -0.1947
vn 0.2680 0.9435 -0.1947
vn 0.4911 0.7947 -0.3568
vn 0.4089 0.6617 -0.6284
vn -0.1024 0.9435 -0.3151
vn -0.1876 0.7947 -0.5773
vn -0.4713 0.6617 -0.5831
vn -0.3313 0.9435 0.0000
vn -0.6071 0.7947 0.0000
vn -0.7002 0.6617 0.2680
vn -0.1024 0.9435 0.3151
vn -0.1876 0.7947 0.5773
vn 0.0385 0.6617 0.7488
vn 0.2680 0.9435 0.1947
vn 0.4911 0.7947 0.3568
vn 0.7240 0.6617 0.1947
vn 0.8897 0.3304 -0.3151
vn 0.7947 0.1876 -0.5773
vn 0.5746 0.3304 -0.7488
vn -0.0247 0.3304 -0.9435
vn -0.3035 0.1876 -0.9342
vn -0.5346 0.3304 -0.7779
vn -0.9050 0.3304 -0.2680
vn -0.9822 0.1876 0.0000
vn -0.9050 0.3304 0.2680
vn -0.5346 0.3304 0.7779
vn -0.3035 0.1876 0.9342
vn -0.0247 0.3304 0.9435
vn 0.5746 0.3304 0.7488
vn 0.7947 0.1876 0.5773
vn 0.8897 0.3304 0.3151
vn 0.3066 0.1256 -0.9435
vn 0.3035 -0.1876 -0.9342
vn 0.0247 -0.3304 -0.9435
vn -0.8026 0.1256 -0.5831
vn -0.7947 -0.1876 -0.5773
vn -0.8897 -0.3304 -0.3151
vn -0.8026 0.1256 0.5831
vn -0.7947 -0.1876 0.5773
vn -0.5746 -0.3304 0.7488
vn 0.3066 0.1256 0.9435
vn 0.3035 -0.1876 0.9342
vn 0.5346 -0.3304 0.7779
vn 0.9921 0.1256 0.0000
vn 0.9822 -0.1876 0.0000
vn 0.9050 -0.3304 -0.2680
vn 0.4713 -0.6617 -0.5831
vn 0.1876 -0.7947 -0.5773
vn -0.0385 -0.6617 -0.7488
vn -0.4089 -0.6617 -0.6284
vn -0.4911 -0.7947 -0.3568
vn -0.7240 -0.6617 -0.1947
vn -0.7240 -0.6617 0.1947
vn -0.4911 -0.7947 0.3568
vn -0.4089 -0.6617 0.6284
vn 0.7002 -0.6617 -0.2680
vn 0.6071 -0.7947 0.0000
vn 0.3313 -0.9435 0.0000
vn -0.0385 -0.6617 0.7488
vn 0.1876 -0.7947 0.5773
vn 0.4713 -0.6617 0.5831
usemtl None
s off
f 43//81 56//81 55//81
f 44//82 56//82 58//82
f 43//83 55//83 60//83
f 43//84 60//84 62//84
f 43//85 62//85 59//85
f 44//86 58//86 65//86
f 45//87 57//87 67//87
f 46//88 61//88 69//88
f 47//89 63//89 71//89
f 48//90 64//90 73//90
f 44//91 65//91 68//91
f 45//92 67//92 70//92
f 46//93 69//93 72//93
f 47//94 71//94 74//94
f 48//95 73//95 66//95
f 49//96 75//96 80//96
f 50//97 76//97 82//97
f 51//98 77//98 83//98
f 52//99 78//99 84//99
f 53//100 79//100 81//100
f 81//101 84//101 54//101
f 81//102 79//102 84//102
f 79//103 52//103 84//103
f 84//104 83//104 54//104
f 84//105 78//105 83//105
f 78//106 51//106 83//106
f 83//107 82//107 54//107
f 83//108 77//108 82//108
f 77//109 50//109 82//109
f 82//110 80//110 54//110
f 82//111 76//111 80//111
f 76//112 49//112 80//112
f 80//113 81//113 54//113
f 80//114 75//114 81//114
f 75//115 53//115 81//115
f 66//116 79//116 53//116
f 66//117 73//117 79//117
f 73//118 52//118 79//118
f 74//119 78//119 52//119
f 74//120 71//120 78//120
f 71//121 51//121 78//121
f 72//122 77//122 51//122
f 72//123 69//123 77//123
f 69//124 50//124 77//124
f 70//125 76//125 50//125
f 70//126 67//126 76//126
f 67//127 49//127 76//127
f 68//128 75//128 49//128
f 68//129 65//129 75//129
f 65//130 53//130 75//130
f 73//131 74//131 52//131
f 73//132 64//132 74//132
f 64//133 47//133 74//133
f 71//134 72//134 51//134
f 71//135 63//135 72//135
f 63//136 46//136 72//136
f 69//137 70//137 50//137
f 69//138 61//138 70//138
f 61//139 45//139 70//139
f 67//140 68//140 49//140
f 67//141 57//141 68//141
f 57//142 44//142 68//142
f 65//143 66//143 53//143
f 65//144 58//144 66//144
f 58//145 48//145 66//145
f 59//146 64//146 48//146
f 59//147 62//147 64//147
f 62//148 47//148 64//148
f 62//149 63//149 47//149
f 62//150 60//150 63//150
f 60//151 46//151 63//151
f 60//152 61//152 46//152
f 60//153 55//153 61//153
f 55//154 45//154 61//154
f 58//155 59//155 48//155
f 58//156 56//156 59//156
f 56//157 43//157 59//157
f 55//158 57//158 45//158
f 55//159 56//159 57//159
f 56//160 44//160 57//160
o Icosphere
v -2.146386 -1.692053 2.941559
v -1.422779 -1.139272 3.467284
v -2.422774 -1.139273 3.792208
v -3.040812 -1.139268 2.941559
v -2.422774 -1.139273 2.090909
v -1.422779 -1.139272 2.415833
v -1.869998 -0.244833 3.792208
v -2.869993 -0.244833 3.467284
v -2.869993 -0.244833 2.415833
v -1.869998 -0.244833 2.090909
v -1.251960 -0.244837 2.941559
v -2.146386 0.307947 2.941559
v -2.308842 -1.542707 3.441554
v -1.721063 -1.542707 3.250570
v -1.883517 -1.217790 3.750571
v -1.295738 -1.217789 2.941559
v -1.721063 -1.542707 2.632547
v -2.672116 -1.542705 2.941559
v -2.834576 -1.217789 3.441556
v -2.308842 -1.542707 2.441564
v -2.834576 -1.217789 2.441562
v -1.883517 -1.217790 2.132547
v -1.195328 -0.692053 3.250571
v -1.195328 -0.692053 2.632546
v -2.146386 -0.692053 3.941559
v -1.558601 -0.692053 3.750576
v -3.097444 -0.692053 3.250571
v -2.734172 -0.692053 3.750576
v -2.734172 -0.692053 2.132542
v -3.097444 -0.692053 2.632546
v -1.558601 -0.692053 2.132542
v -2.146386 -0.692053 1.941559
v -1.458197 -0.166317 3.441556
v -2.409255 -0.166315 3.750571
v -2.997034 -0.166317 2.941559
v -2.409255 -0.166315 2.132547
v -1.458197 -0.166317 2.441562
v -1.983931 0.158602 3.441554
v -1.620656 0.158599 2.941559
v -2.571709 0.158601 3.250570
v -2.571709 0.158601 2.632547
v -1.983931 0.158602 2.441564
vn 0.1024 -0.9435 0.3151
vn 0.7002 -0.6617 0.2680
vn -0.2680 -0.9435 0.1947
vn -0.2680 -0.9435 -0.1947
vn 0.1024 -0.9435 -0.3151
vn 0.9050 -0.3304 0.2680
vn 0.0247 -0.3304 0.9435
vn -0.8897 -0.3304 0.3151
vn -0.5746 -0.3304 -0.7488
vn 0.5346 -0.3304 -0.7779
vn 0.8026 -0.1256 0.5831
vn -0.3066 -0.1256 0.9435
vn -0.9921 -0.1256 0.0000
vn -0.3066 -0.1256 -0.9435
vn 0.8026 -0.1256 -0.5831
vn 0.4089 0.6617 0.6284
vn -0.4713 0.6617 0.5831
vn -0.7002 0.6617 -0.2680
vn 0.0385 0.6617 -0.7488
vn 0.7240 0.6617 -0.1947
vn 0.2680 0.9435 -0.1947
vn 0.4911 0.7947 -0.3568
vn 0.4089 0.6617 -0.6284
vn -0.1024 0.9435 -0.3151
vn -0.1876 0.7947 -0.5773
vn -0.4713 0.6617 -0.5831
vn -0.3313 0.9435 0.0000
vn -0.6071 0.7947 0.0000
vn -0.7002 0.6617 0.2680
vn -0.1024 0.9435 0.3151
vn -0.1876 0.7947 0.5773
vn 0.0385 0.6617 0.7488
vn 0.2680 0.9435 0.1947
vn 0.4911 0.7947 0.3568
vn 0.7240 0.6617 0.1947
vn 0.8897 0.3304 -0.3151
vn 0.7947 0.1876 -0.5773
vn 0.5746 0.3304 -0.7488
vn -0.0247 0.3304 -0.9435
vn -0.3035 0.1876 -0.9342
vn -0.5346 0.3304 -0.7779
vn -0.9050 0.3304 -0.2680
vn -0.9822 0.1876 0.0000
vn -0.9050 0.3304 0.2680
vn -0.5346 0.3304 0.7779
vn -0.3035 0.1876 0.9342
vn -0.0247 0.3304 0.9435
vn 0.5746 0.3304 0.7488
vn 0.7947 0.1876 0.5773
vn 0.8897 0.3304 0.3151
vn 0.3066 0.1256 -0.9435
vn 0.3035 -0.1876 -0.9342
vn 0.0247 -0.3304 -0.9435
vn -0.8026 0.1256 -0.5831
vn -0.7947 -0.1876 -0.5773
vn -0.8897 -0.3304 -0.3151
vn -0.8026 0.1256 0.5831
vn -0.7947 -0.1876 0.5773
vn -0.5746 -0.3304 0.7488
vn 0.3066 0.1256 0.9435
vn 0.3035 -0.1876 0.9342
vn 0.5346 -0.3304 0.7779
vn 0.9921 0.1256 0.0000
vn 0.9822 -0.1876 0.0000
vn 0.9050 -0.3304 -0.2680
vn 0.4713 -0.6617 -0.5831
vn 0.1876 -0.7947 -0.5773
vn -0.0385 -0.6617 -0.7488
vn -0.4089 -0.6617 -0.6284
vn -0.4911 -0.7947 -0.3568
vn -0.7240 -0.6617 -0.1947
vn -0.7240 -0.6617 0.1947
vn -0.4911 -0.7947 0.3568
vn -0.4089 -0.6617 0.6284
vn 0.7002 -0.6617 -0.2680
vn 0.6071 -0.7947 0.0000
vn 0.3313 -0.9435 0.0000
vn -0.0385 -0.6617 0.7488
vn 0.1876 -0.7947 0.5773
vn 0.4713 -0.6617 0.5831
usemtl None
s off
f 85//161 98//161 97//161
f 86//162 98//162 100//162
f 85//163 97//163 102//163
f 85//164 102//164 104//164
f 85//165 104//165 101//165
f 86//166 100//166 107//166
f 87//167 99//167 109//167
f 88//168 103//168 111//168
f 89//169 105//169 113//169
f 90//170 106//170 115//170
f 86//171 107//171 110//171
f 87//172 109//172 112//172
f 88//173 111//173 114//173
f 89//174 113//174 116//174
f 90//175 115//175 108//175
f 91//176 117//176 122//176
f 92//177 118//177 124//177
f 93//178 119//178 125//178
f 94//179 120//179 126//179
f 95//180 121//180 123//180
f 123//181 126//181 96//181
f 123//182 121//182 126//182
f 121//183 94//183 126//183
f 126//184 125//184 96//184
f 126//185 120//185 125//185
f 120//186 93//186 125//186
f 125//187 124//187 96//187
f 125//188 119//188 124//188
f 119//189 92//189 124//189
f 124//190 122//190 96//190
f 124//191 118//191 122//191
f 118//192 91//192 122//192
f 122//193 123//193 96//193
f 122//194 117//194 123//194
f 117//195 95//195 123//195
f 108//196 121//196 95//196
f 108//197 115//197 121//197
f 115//198 94//198 121//198
f 116//199 120//199 94//199
f 116//200 113//200 120//200
f 113//201 93//201 120//201
f 114//202 119//202 93//202
f 114//203 111//203 119//203
f 111//204 92//204 119//204
f 112//205 118//205 92//205
f 112//206 109//206 118//206
f 109//207 91//207 118//207
f 110//208 117//208 91//208
f 110//209 107//209 117//209
f 107//210 95//210 117//210
f 115//211 116//211 94//211
f 115//212 106//212 116//212
f 106//213 89//213 116//213
f 113//214 114//214 93//214
f 113//215 105//215 114//215
f 105//216 88//216 114//216
f 111//217 112//217 92//217
f 111//218 103//218 112//218
f 103//219 87//219 112//219
f 109//220 110//220 91//220
f 109//221 99//221 110//221
f 99//222 86//222 110//222
f 107//223 108//223 95//223
f 107//224 100//224 108//224
f 100//225 90//225 108//225
f 101//226 106//226 90//226
f 101//227 104//227 106//227
f 104//228 89//228 106//228
f 104//229 105//229 89//229
f 104//230 102//230 105//230
f 102//231 88//231 105//231
f 102//232 103//232 88//232
f 102//233 97//233 103//233
f 97//234 87//234 103//234
f 100//235 101//235 90//235
f 100//236 98//236 101//236
f 98//237 85//237 101//237
f 97//238 99//238 87//238
f 97//239 98//239 99//239
f 98//240 86//240 99//240
