# Blender v2.79 (sub 0) OBJ File: 'Base_Perimetral_Ibiza-1.blend'
# www.blender.org
mtllib edificio01.mtl
o Layer0_001_Untitled.001
v -6.433340 0.000000 -16.988195
v -7.394199 0.000000 20.014137
v -13.708549 0.000000 -15.701991
v 13.708548 0.000000 16.283325
v -1.460458 0.000000 -17.867365
v 7.394198 0.000000 -19.432802
v -1.890467 0.000000 -20.299646
v -6.863350 0.000000 -19.420477
v -12.023045 8.000000 -6.168201
v -6.433340 8.000000 -16.988195
v -13.708549 8.000000 -15.701992
v -9.056044 8.000000 10.614173
v -7.394199 8.000000 20.014137
v 13.708548 8.000000 16.283325
v -1.460458 8.000000 -17.867365
v 11.989395 8.000000 6.559205
v 9.079947 8.000000 -9.897627
v 7.394198 8.000000 -19.432802
v -1.460458 65.000000 -17.867369
v -6.433340 65.000000 -16.988199
v 0.444027 68.500000 -12.953893
v -6.527856 65.000000 -11.721314
v 0.444027 65.000000 -12.953892
v -6.527856 68.500000 -11.721315
v -7.427917 65.000000 -16.812365
v -0.456034 65.000000 -18.044943
v 7.394198 0.000000 -19.432802
v 13.708548 8.000000 16.283325
v 13.708548 0.000000 16.283325
v 11.989395 8.000000 6.559205
v 9.079947 8.000000 -9.897627
v 7.394198 8.000000 -19.432802
v 9.079947 60.806171 -9.897629
v 11.989395 60.806171 6.559203
v 13.708548 65.000000 16.283321
v 13.708548 60.806171 16.283321
v 7.394198 65.000000 -19.432806
v 7.394198 60.806171 -19.432806
v 15.323504 8.000000 15.997813
v 13.604351 60.806171 6.273690
v 15.323504 60.806171 15.997811
v 13.604351 8.000000 6.273692
v 10.694903 8.000000 -10.183140
v 9.009154 60.806171 -19.718319
v 10.694903 60.806171 -10.183142
v 9.009154 8.000000 -19.718315
v 13.708548 8.000000 16.283325
v -7.394199 0.000000 20.014137
v 13.708548 0.000000 16.283325
v -7.394199 8.000000 20.014137
v 13.708548 65.000000 16.283321
v -7.394199 60.806171 20.014133
v 13.708548 60.806171 16.283321
v -7.394199 65.000000 20.014133
v 15.323504 60.806171 15.997811
v 15.323504 8.000000 15.997813
v -9.009154 8.000000 20.299650
v -9.009154 60.806171 20.299646
v -9.056044 8.000000 10.614173
v -7.394199 0.000000 20.014137
v -7.394199 8.000000 20.014137
v -13.708549 0.000000 -15.701991
v -12.023045 8.000000 -6.168201
v -13.708549 8.000000 -15.701992
v -7.394199 65.000000 20.014133
v -7.427917 65.000000 -16.812365
v -13.708549 65.000000 -15.701994
v -6.527856 65.000000 -11.721314
v 13.708548 65.000000 16.283321
v 0.444027 65.000000 -12.953892
v 7.394198 65.000000 -19.432806
v -0.456034 65.000000 -18.044943
v -9.056044 60.806171 10.614171
v -7.394199 60.806171 20.014133
v -12.023045 60.806171 -6.168203
v -13.708549 60.806171 -15.701994
v -10.671000 60.806171 10.899684
v -9.009154 8.000000 20.299650
v -9.009154 60.806171 20.299646
v -10.671000 8.000000 10.899686
v -13.638000 60.806171 -5.882691
v -15.323504 8.000000 -15.416479
v -13.638000 8.000000 -5.882689
v -15.323504 60.806171 -15.416481
v -6.527856 68.500000 -11.721315
v -6.433340 68.500000 -16.988199
v -7.427917 68.500000 -16.812365
v 0.444027 68.500000 -12.953893
v -1.460458 68.500000 -17.867369
v -1.890467 68.500000 -20.299650
v -0.456034 68.500000 -18.044943
v -6.863350 68.500000 -19.420481
v -13.708549 8.000000 -15.701992
v -6.433340 0.000000 -16.988195
v -13.708549 0.000000 -15.701991
v -6.433340 8.000000 -16.988195
v -1.460458 8.000000 -17.867365
v 7.394198 0.000000 -19.432802
v -1.460458 0.000000 -17.867365
v 7.394198 8.000000 -19.432802
v -1.460458 65.000000 -17.867369
v 9.009154 8.000000 -19.718315
v 7.394198 60.806171 -19.432806
v 7.394198 65.000000 -19.432806
v -0.456034 65.000000 -18.044943
v 9.009154 60.806171 -19.718319
v -15.323504 60.806171 -15.416481
v -15.323504 8.000000 -15.416479
v -13.708549 60.806171 -15.701994
v -6.433340 65.000000 -16.988199
v -13.708549 65.000000 -15.701994
v -7.427917 65.000000 -16.812365
v -6.863350 68.500000 -19.420481
v -6.433340 65.000000 -16.988199
v -6.433340 68.500000 -16.988199
v -6.433340 8.000000 -16.988195
v -6.433340 0.000000 -16.988195
v -6.863350 0.000000 -19.420477
v -1.890467 0.000000 -20.299646
v -1.890467 68.500000 -20.299650
v -1.460458 8.000000 -17.867365
v -1.460458 0.000000 -17.867365
v -1.460458 65.000000 -17.867369
v -1.460458 68.500000 -17.867369
v -0.456034 65.000000 -18.044943
v 0.444027 68.500000 -12.953893
v 0.444027 65.000000 -12.953892
v -0.456034 68.500000 -18.044943
v -7.427917 68.500000 -16.812365
v -6.527856 65.000000 -11.721314
v -6.527856 68.500000 -11.721315
v -7.427917 65.000000 -16.812365
vt 0.000000 0.000000
vt 0.000000 0.000000
vt 0.000000 0.000000
vt 0.000000 0.000000
vt 0.000000 0.000000
vt 0.000000 0.000000
vt 0.000000 0.000000
vt 0.000000 0.000000
vt 0.000000 0.000000
vt 0.000000 0.000000
vt 0.000000 0.000000
vt 0.000000 0.000000
vt 0.000000 0.000000
vt 0.000000 0.000000
vt 0.000000 0.000000
vt 0.000000 0.000000
vt 0.000000 0.000000
vt 0.000000 0.000000
vt 0.000000 0.000000
vt 0.000000 0.000000
vt 0.000000 0.000000
vt 0.000000 0.000000
vt 0.000000 0.000000
vt 0.000000 0.000000
vt 0.000000 0.000000
vt 0.000000 0.000000
vt 0.825889 0.092061
vt 0.088996 0.148051
vt 0.097165 0.062986
vt 0.288682 0.155922
vt 0.625603 0.169202
vt 0.820232 0.176874
vt 0.582757 0.744310
vt 0.237992 0.731843
vt 0.029137 0.771373
vt 0.033643 0.724454
vt 0.778784 0.798281
vt 0.781903 0.751511
vt 0.088996 0.148051
vt 0.237992 0.731843
vt 0.033643 0.724454
vt 0.288682 0.155922
vt 0.280304 -0.038305
vt 0.287541 -0.143026
vt 0.312936 -0.039991
vt 0.255030 -0.141379
vt 0.286982 0.733615
vt 0.303441 0.156504
vt 0.336556 0.157809
vt 0.253096 0.732390
vt 0.839732 -0.120330
vt 0.830691 -0.016009
vt 0.798715 -0.020303
vt 0.871569 -0.116048
vt 0.625603 0.169202
vt 0.781903 0.751511
vt 0.582757 0.744310
vt 0.820232 0.176874
vt 0.728491 0.150951
vt 0.719684 0.255656
vt 0.687329 0.251329
vt 0.760705 0.155266
vt 0.777706 0.175198
vt 0.704677 0.748718
vt 0.744756 0.173899
vt 0.738391 0.749937
vt 0.348845 0.241213
vt 0.356369 0.136236
vt 0.381800 0.239424
vt 0.323533 0.137986
vt 0.832934 0.120938
vt 0.323835 -0.061383
vt 0.847440 0.007114
vt 0.307324 0.053669
vt 0.726628 0.955076
vt 0.195400 0.833603
vt 0.734630 0.892283
vt 0.186285 0.897116
vt 0.775319 0.896711
vt 0.872608 0.126015
vt 0.266542 0.048449
vt 0.153547 0.829049
vt 0.713625 0.223035
vt 0.864187 0.167226
vt 0.858916 0.231134
vt 0.317139 0.137094
vt 0.455312 0.208635
vt 0.309185 0.200489
vt 0.819788 0.705626
vt 0.248251 0.725026
vt 0.250141 0.671053
vt 0.330176 0.729855
vt 0.800706 0.880042
vt 0.327484 0.788699
vt 0.243893 0.849453
vt 0.246183 0.784061
vt 0.672588 0.660468
vt 0.822765 0.669526
vt 0.405629 0.644366
vt 0.254633 0.635258
vt 0.672588 0.660468
vt 0.858916 0.231134
vt 0.822765 0.669526
vt 0.713625 0.223035
vt 0.415478 -0.047640
vt 0.405859 0.026976
vt 0.382089 0.023468
vt 0.439132 -0.044182
vt 0.674211 0.660565
vt 0.690276 0.221733
vt 0.715195 0.223122
vt 0.648456 0.659012
vt 0.671305 0.041279
vt 0.677988 -0.033701
vt 0.695703 0.040359
vt 0.653738 -0.032782
vt 0.405629 0.644366
vt 0.309185 0.200489
vt 0.455312 0.208635
vt 0.254633 0.635258
vt 0.321557 0.152385
vt 0.310731 0.230415
vt 0.286632 0.226764
vt 0.345536 0.155983
vt 0.295047 0.637696
vt 0.323569 0.201291
vt 0.348298 0.202669
vt 0.269495 0.636155
vt 0.321557 0.152385
vt 0.310731 0.230415
vt 0.286632 0.226764
vt 0.345536 0.155983
vt 0.330176 0.729855
vt 0.247954 0.733504
vt 0.248251 0.725026
vt 0.327484 0.788699
vt 0.246479 0.775612
vt 0.207444 0.773374
vt 0.246183 0.784061
vt 0.208704 0.731200
vt -0.155308 0.155232
vt -0.385496 0.028106
vt -0.160540 0.039767
vt -0.380508 0.143071
vt -0.652343 0.137500
vt -0.900767 0.011195
vt -0.658821 0.028929
vt -0.896048 0.120119
vt -0.603276 0.959874
vt -0.940731 0.116932
vt -0.863063 0.881560
vt -0.860297 0.945395
vt -0.632310 0.958238
vt -0.910010 0.878861
vt -0.069893 0.926646
vt -0.105058 0.157946
vt -0.120508 0.923186
vt -0.344683 0.968831
vt -0.117724 0.984611
vt -0.313770 0.970980
vt 0.945941 1.049240
vt 1.385085 0.995835
vt 1.385085 1.049240
vt 1.385085 0.126104
vt 1.385085 0.004036
vt 0.945941 0.004036
vt 0.048096 0.004036
vt 0.048096 1.049240
vt -0.391049 0.126104
vt -0.391049 0.004036
vt -0.391049 0.995835
vt -0.391049 1.049240
vt -0.391049 0.995835
vt -1.310229 1.049240
vt -1.310229 0.995835
vt -0.391049 1.049240
vt -3.063666 1.049240
vt -3.245013 0.995835
vt -3.063666 0.995835
vt -3.245013 1.049240
vt 1.385085 1.049240
vt 2.304266 0.995835
vt 2.304266 1.049240
vt 1.385085 0.995835
vt 4.729256 1.049240
vt 4.549686 0.995835
vt 4.729256 0.995835
vt 4.549686 1.049240
vn 0.0000 -1.0000 0.0000
vn 0.0000 1.0000 0.0000
vn -0.1741 0.0000 -0.9847
vn 0.1741 0.0000 0.9847
vn 0.9847 0.0000 -0.1741
vn -0.0462 0.9641 -0.2615
vn 0.1192 0.0227 0.9926
vn 0.1741 0.0002 0.9847
vn -0.9847 0.0000 0.1741
vn 0.0025 0.9962 -0.0867
vn -0.1741 0.0002 -0.9847
usemtl skp_front_default.001
s 1
f 1/1/1 2/2/1 3/3/1
f 2/2/1 1/1/1 4/4/1
f 4/4/1 1/1/1 5/5/1
f 4/4/1 5/5/1 6/6/1
f 7/7/1 1/1/1 8/8/1
f 1/1/1 7/7/1 5/5/1
f 9/9/2 10/10/2 11/11/2
f 10/10/2 9/9/2 12/12/2
f 10/10/2 12/12/2 13/13/2
f 10/10/2 13/13/2 14/14/2
f 10/10/2 14/14/2 15/15/2
f 15/15/2 14/14/2 16/16/2
f 15/15/2 16/16/2 17/17/2
f 15/15/2 17/17/2 18/18/2
f 10/10/3 5/5/3 1/1/3
f 5/5/3 10/10/3 15/15/3
f 19/19/4 10/10/4 15/15/4
f 10/10/4 19/19/4 20/20/4
f 21/21/4 22/22/4 23/23/4
f 22/22/4 21/21/4 24/24/4
f 22/22/2 20/20/2 25/25/2
f 20/20/2 22/22/2 23/23/2
f 20/20/2 23/23/2 19/19/2
f 19/19/2 23/23/2 26/26/2
usemtl akkerstede2.001
f 27/27/5 28/28/5 29/29/5
f 28/28/5 27/27/5 30/30/5
f 30/30/5 27/27/5 31/31/5
f 31/31/5 27/27/5 32/32/5
f 31/31/5 33/33/5 30/30/5
f 34/34/5 35/35/5 36/36/5
f 35/35/5 34/34/5 37/37/5
f 37/37/5 34/34/5 33/33/5
f 33/33/5 34/34/5 30/30/5
f 37/37/5 33/33/5 38/38/5
f 39/39/5 40/40/5 41/41/5
f 40/40/5 39/39/5 42/42/5
f 42/43/1 28/44/1 30/45/1
f 28/44/1 42/43/1 39/46/1
f 34/47/3 42/48/3 30/49/3
f 42/48/3 34/47/3 40/50/3
f 36/51/2 40/52/2 34/53/2
f 40/52/2 36/51/2 41/54/2
f 43/55/5 44/56/5 45/57/5
f 44/56/5 43/55/5 46/58/5
f 33/59/2 44/60/2 38/61/2
f 44/60/2 33/59/2 45/62/2
f 43/63/4 33/64/4 31/65/4
f 33/64/4 43/63/4 45/66/4
f 46/67/1 31/68/1 32/69/1
f 31/68/1 46/67/1 43/70/1
usemtl akkerstede3.001
f 47/71/4 48/72/4 49/73/4
f 48/72/4 47/71/4 50/74/4
f 51/75/4 52/76/6 53/77/7
f 52/76/6 51/75/4 54/78/4
f 55/79/4 47/71/4 56/80/4
f 47/71/4 55/79/4 50/74/4
f 50/74/4 55/79/4 57/81/4
f 57/81/4 55/79/4 58/82/8
f 58/82/8 55/79/4 53/77/7
f 58/82/8 53/77/7 52/76/6
usemtl akkerstede4.001
f 59/83/9 60/84/9 61/85/9
f 60/84/9 59/83/9 62/86/9
f 62/86/9 59/83/9 63/87/9
f 62/86/9 63/87/9 64/88/9
f 65/89/2 66/90/2 67/91/2
f 66/90/2 65/89/2 68/92/2
f 68/92/2 65/89/2 69/93/2
f 68/92/2 69/93/2 70/94/2
f 70/94/2 69/93/2 71/95/2
f 71/95/2 72/96/2 70/94/2
f 65/89/9 73/97/9 74/98/9
f 73/97/9 65/89/9 67/91/9
f 73/97/9 67/91/9 75/99/9
f 73/97/9 75/99/9 59/83/9
f 59/83/9 75/99/9 63/87/9
f 75/99/9 67/91/9 76/100/9
f 77/101/9 78/102/9 79/103/9
f 78/102/9 77/101/9 80/104/9
f 79/105/2 73/106/2 77/107/2
f 73/106/2 79/105/2 74/108/2
f 77/109/3 59/110/3 80/111/3
f 59/110/3 77/109/3 73/112/3
f 59/113/1 78/114/1 80/115/1
f 78/114/1 59/113/1 61/116/1
f 81/117/9 82/118/9 83/119/9
f 82/118/9 81/117/9 84/120/9
f 83/121/2 64/122/2 82/123/2
f 64/122/2 83/121/2 63/124/2
f 75/125/4 83/126/4 63/127/4
f 83/126/4 75/125/4 81/128/4
f 81/129/2 76/130/2 84/131/2
f 76/130/2 81/129/2 75/132/2
f 85/133/2 86/134/2 87/135/2
f 86/134/2 85/133/2 88/136/2
f 86/134/2 88/136/2 89/137/2
f 86/134/2 89/137/2 90/138/2
f 89/137/2 88/136/2 91/139/2
f 90/138/2 92/140/2 86/134/2
usemtl akkerstede1.001
f 93/141/3 94/142/3 95/143/3
f 94/142/3 93/141/3 96/144/3
f 97/145/3 98/146/3 99/147/3
f 98/146/3 97/145/3 100/148/3
f 101/149/3 100/148/3 97/145/3
f 100/148/3 101/149/3 102/150/3
f 102/150/3 101/149/3 103/151/3
f 103/151/3 101/149/3 104/152/3
f 104/152/3 101/149/3 105/153/10
f 106/154/3 102/150/3 103/151/3
f 107/155/3 93/141/3 108/156/3
f 93/141/3 107/155/3 96/144/3
f 96/144/3 107/155/3 109/157/3
f 96/144/3 109/157/3 110/158/11
f 110/158/11 109/157/3 111/159/3
f 110/158/11 111/159/3 112/160/4
usemtl akkerstede1#1.001
f 113/161/9 114/162/9 115/163/9
f 114/162/9 113/161/9 116/164/9
f 116/164/9 113/161/9 117/165/9
f 117/165/9 113/161/9 118/166/9
f 113/161/3 119/167/3 118/166/3
f 119/167/3 113/161/3 120/168/3
f 119/167/5 121/169/5 122/170/5
f 121/169/5 119/167/5 123/171/5
f 123/171/5 119/167/5 124/172/5
f 124/172/5 119/167/5 120/168/5
f 125/173/5 126/174/5 127/175/5
f 126/174/5 125/173/5 128/176/5
f 124/177/3 125/178/3 123/179/3
f 125/178/3 124/177/3 128/180/3
f 129/181/9 130/182/9 131/183/9
f 130/182/9 129/181/9 132/184/9
f 129/185/3 114/186/3 132/187/3
f 114/186/3 129/185/3 115/188/3
